<mxfile host="app.diagrams.net" agent="Mozilla/5.0 (Windows NT 10.0; Win64; x64) AppleWebKit/537.36 (KHTML, like Gecko) Chrome/133.0.0.0 Safari/537.36 Edg/133.0.0.0" version="26.1.1">
  <diagram id="C5RBs43oDa-KdzZeNtuy" name="Page-1">
    <mxGraphModel dx="1380" dy="747" grid="1" gridSize="10" guides="1" tooltips="1" connect="1" arrows="1" fold="1" page="1" pageScale="1" pageWidth="827" pageHeight="1169" math="0" shadow="0">
      <root>
        <mxCell id="WIyWlLk6GJQsqaUBKTNV-0" />
        <mxCell id="WIyWlLk6GJQsqaUBKTNV-1" parent="WIyWlLk6GJQsqaUBKTNV-0" />
        <mxCell id="WBP_kT_MwUk3uhpTw0UZ-2" value="" style="group;movable=1;resizable=1;rotatable=1;deletable=1;editable=1;locked=0;connectable=1;" vertex="1" connectable="0" parent="WIyWlLk6GJQsqaUBKTNV-1">
          <mxGeometry x="60" y="240" width="130" height="220" as="geometry" />
        </mxCell>
        <mxCell id="WBP_kT_MwUk3uhpTw0UZ-0" value="" style="verticalLabelPosition=middle;verticalAlign=middle;html=1;shape=trapezoid;perimeter=trapezoidPerimeter;whiteSpace=wrap;size=0.23;arcSize=10;flipV=1;labelPosition=center;align=center;strokeColor=none;fillColor=#dae8fc;" vertex="1" parent="WBP_kT_MwUk3uhpTw0UZ-2">
          <mxGeometry width="130" height="110.6145251396648" as="geometry" />
        </mxCell>
        <mxCell id="WBP_kT_MwUk3uhpTw0UZ-1" value="" style="verticalLabelPosition=middle;verticalAlign=middle;html=1;shape=trapezoid;perimeter=trapezoidPerimeter;whiteSpace=wrap;size=0.23;arcSize=10;flipV=1;labelPosition=center;align=center;strokeColor=none;fillColor=#dae8fc;rotation=-180;" vertex="1" parent="WBP_kT_MwUk3uhpTw0UZ-2">
          <mxGeometry y="109.3854748603352" width="130" height="110.6145251396648" as="geometry" />
        </mxCell>
        <mxCell id="WBP_kT_MwUk3uhpTw0UZ-3" value="&lt;font face=&quot;Times New Roman&quot;&gt;X&lt;font style=&quot;font-size: 24px;&quot;&gt;t&lt;/font&gt;&lt;/font&gt;" style="text;html=1;align=center;verticalAlign=middle;resizable=0;points=[];autosize=1;strokeColor=none;fillColor=none;fontSize=32;" vertex="1" parent="WIyWlLk6GJQsqaUBKTNV-1">
          <mxGeometry x="100" y="130" width="50" height="50" as="geometry" />
        </mxCell>
        <mxCell id="WBP_kT_MwUk3uhpTw0UZ-4" value="U-Net" style="text;strokeColor=none;align=center;fillColor=none;html=1;verticalAlign=middle;whiteSpace=wrap;rounded=0;rotation=-90;fontSize=21;" vertex="1" parent="WIyWlLk6GJQsqaUBKTNV-1">
          <mxGeometry x="20" y="335" width="60" height="30" as="geometry" />
        </mxCell>
      </root>
    </mxGraphModel>
  </diagram>
</mxfile>
